<svg width="152" height="58" viewBox="0 0 152 58" fill="none" xmlns="http://www.w3.org/2000/svg">
<path d="M59.4721 19.8983H67.1078V22.2318H56.5495V5.4124H59.4721V19.8983ZM72.655 9.73277V22.2318H69.8479V9.73277H72.655ZM69.6747 6.48672C69.6747 6.05545 69.8094 5.69735 70.079 5.4124C70.3562 5.12746 70.749 4.98499 71.2572 4.98499C71.7655 4.98499 72.1583 5.12746 72.4355 5.4124C72.7128 5.69735 72.8514 6.05545 72.8514 6.48672C72.8514 6.91029 72.7128 7.26454 72.4355 7.54949C72.1583 7.82673 71.7655 7.96535 71.2572 7.96535C70.749 7.96535 70.3562 7.82673 70.079 7.54949C69.8094 7.26454 69.6747 6.91029 69.6747 6.48672ZM78.4679 18.2927C78.5064 18.955 78.7567 19.4671 79.2187 19.829C79.6808 20.1833 80.2931 20.3604 81.0555 20.3604C81.7948 20.3604 82.357 20.2218 82.742 19.9446C83.1271 19.6596 83.3196 19.29 83.3196 18.8356C83.3196 18.335 83.1117 17.9538 82.6958 17.692C82.2877 17.4301 81.6061 17.1991 80.6512 16.9989C79.6962 16.7986 78.8991 16.5445 78.2599 16.2364C76.8583 15.5587 76.1575 14.5768 76.1575 13.2907C76.1575 12.2126 76.6119 11.3115 77.5206 10.5876C78.4294 9.86369 79.5845 9.50174 80.9862 9.50174C82.4802 9.50174 83.6854 9.8714 84.6019 10.6107C85.526 11.35 85.9881 12.3088 85.9881 13.4871H83.181C83.181 12.948 82.9808 12.5014 82.5803 12.1471C82.1799 11.7851 81.6485 11.6042 80.9862 11.6042C80.3701 11.6042 79.8656 11.7466 79.4729 12.0316C79.0878 12.3165 78.8953 12.6977 78.8953 13.1752C78.8953 13.6065 79.0763 13.9415 79.4382 14.1802C79.8002 14.419 80.5318 14.6615 81.6331 14.908C82.7343 15.1467 83.5969 15.4355 84.2207 15.7744C84.8522 16.1055 85.3181 16.506 85.6184 16.9757C85.9265 17.4455 86.0805 18.0154 86.0805 18.6854C86.0805 19.8098 85.6146 20.7224 84.6827 21.4232C83.7509 22.1163 82.5303 22.4628 81.0208 22.4628C79.9966 22.4628 79.084 22.278 78.283 21.9084C77.4821 21.5387 76.8583 21.0304 76.4117 20.3835C75.965 19.7366 75.7417 19.0397 75.7417 18.2927H78.4679ZM87.7809 9.73277H89.8371V6.69465H92.6442V9.73277H94.8506V11.8121H92.6442V18.7894C92.6442 19.2669 92.7366 19.6134 92.9215 19.829C93.114 20.037 93.4529 20.1409 93.938 20.1409C94.2615 20.1409 94.5888 20.1024 94.9199 20.0254V22.1972C94.2807 22.3743 93.6646 22.4628 93.0716 22.4628C90.9153 22.4628 89.8371 21.273 89.8371 18.8933V11.8121H87.7809V9.73277ZM97.1171 16.3057V15.9592C97.1171 14.7116 97.3558 13.5988 97.8333 12.6207C98.3185 11.635 98.9962 10.8687 99.8664 10.3219C100.737 9.77513 101.707 9.50174 102.777 9.50174C104.479 9.50174 105.792 10.0447 106.717 11.1305C107.648 12.2164 108.114 13.7528 108.114 15.7397V16.8718H99.9473C100.032 17.9037 100.375 18.7201 100.975 19.3208C101.584 19.9215 102.346 20.2218 103.263 20.2218C104.549 20.2218 105.596 19.702 106.405 18.6623L107.918 20.1063C107.417 20.8533 106.747 21.4347 105.908 21.8506C105.076 22.2588 104.141 22.4628 103.101 22.4628C101.322 22.4628 99.878 21.9045 98.769 20.7878C97.6677 19.6635 97.1171 18.1694 97.1171 16.3057ZM99.9935 14.8156H105.342V14.6076C105.28 13.6681 105.03 12.9596 104.591 12.4821C104.152 11.9969 103.544 11.7543 102.766 11.7543C101.996 11.7543 101.372 12.0239 100.895 12.563C100.425 13.102 100.124 13.8529 99.9935 14.8156ZM110.854 9.73277H113.5L113.581 11.1767C114.505 10.0601 115.718 9.50174 117.22 9.50174C119.823 9.50174 121.147 10.9919 121.193 13.9723V22.2318H118.386V14.134C118.386 13.3408 118.213 12.7555 117.866 12.3781C117.528 11.9931 116.969 11.8005 116.191 11.8005C115.059 11.8005 114.216 12.3127 113.662 13.3369V22.2318H110.854V9.73277ZM129.769 9.73277H131.826V6.69465H134.633V9.73277H136.839V11.8121H134.633V18.7894C134.633 19.2669 134.725 19.6134 134.91 19.829C135.102 20.037 135.441 20.1409 135.926 20.1409C136.25 20.1409 136.577 20.1024 136.908 20.0254V22.1972C136.269 22.3743 135.653 22.4628 135.06 22.4628C132.904 22.4628 131.826 21.273 131.826 18.8933V11.8121H129.769V9.73277ZM139.059 16.0054V15.8668C139.059 14.6423 139.302 13.541 139.787 12.563C140.272 11.5772 140.954 10.8225 141.832 10.2988C142.71 9.76743 143.719 9.50174 144.858 9.50174C146.545 9.50174 147.912 10.0447 148.959 11.1305C150.014 12.2164 150.584 13.6565 150.669 15.4509L150.68 16.1094C150.68 17.3416 150.442 18.4428 149.964 19.4132C149.494 20.3835 148.817 21.1344 147.931 21.6658C147.053 22.1972 146.037 22.4628 144.881 22.4628C143.118 22.4628 141.705 21.8776 140.642 20.707C139.587 19.5287 139.059 17.9615 139.059 16.0054ZM141.866 16.1094C141.866 17.3955 142.132 18.4043 142.663 19.1359C143.195 19.8598 143.934 20.2218 144.881 20.2218C145.829 20.2218 146.564 19.8521 147.088 19.1128C147.619 18.3735 147.885 17.2915 147.885 15.8668C147.885 14.6038 147.612 13.6026 147.065 12.8633C146.526 12.124 145.79 11.7543 144.858 11.7543C143.942 11.7543 143.214 12.1201 142.675 12.8518C142.136 13.5757 141.866 14.6615 141.866 16.1094ZM55.5792 44.7794H59.6454C59.6454 45.6804 59.8764 46.3466 60.3385 46.7778C60.8083 47.2014 61.5668 47.4132 62.6142 47.4132C63.2842 47.4132 63.8117 47.2707 64.1968 46.9858C64.5896 46.6931 64.7859 46.2849 64.7859 45.7613C64.7859 45.1683 64.5742 44.7062 64.1506 44.3751C63.7347 44.0439 62.9993 43.7012 61.9442 43.3469C60.8891 42.9927 60.0266 42.65 59.3566 42.3188C57.1772 41.2484 56.0874 39.7774 56.0874 37.9061C56.0874 36.9742 56.357 36.154 56.8961 35.4455C57.4428 34.7293 58.213 34.1748 59.2064 33.7821C60.1999 33.3816 61.3165 33.1814 62.5564 33.1814C63.7655 33.1814 64.8475 33.397 65.8025 33.8283C66.7651 34.2595 67.5122 34.8756 68.0435 35.6766C68.5749 36.4698 68.8406 37.3785 68.8406 38.4028H64.7975C64.7975 37.7174 64.5857 37.186 64.1621 36.8086C63.7463 36.4313 63.1802 36.2426 62.464 36.2426C61.7401 36.2426 61.1664 36.4043 60.7428 36.7278C60.3269 37.0435 60.119 37.4478 60.119 37.9407C60.119 38.372 60.35 38.7647 60.8121 39.119C61.2742 39.4655 62.0867 39.8275 63.2495 40.2049C64.4124 40.5745 65.3674 40.975 66.1144 41.4062C67.9319 42.4536 68.8406 43.8976 68.8406 45.7382C68.8406 47.2091 68.2861 48.3643 67.1772 49.2037C66.0682 50.0431 64.5472 50.4628 62.6142 50.4628C61.2511 50.4628 60.015 50.2203 58.9061 49.7351C57.8048 49.2422 56.9731 48.5722 56.4109 47.7251C55.8564 46.8702 55.5792 45.8883 55.5792 44.7794ZM82.2929 33.4124V36.5429H74.738V40.0893H81.1146V43.1044H74.738V47.1128H82.2698V50.2318H70.6834V33.4124H82.2929ZM83.6851 50.2318V33.4124H87.7398L93.689 43.8783V33.4124H97.7321V50.2318H93.7005L87.7398 39.7659V50.2318H83.6851ZM104.38 50.2318H100.337V33.4124H104.38V50.2318ZM106.489 42.4344V41.4871C106.489 39.8391 106.789 38.3874 107.39 37.1321C107.998 35.8691 108.865 34.8949 109.989 34.2095C111.121 33.5241 112.407 33.1814 113.847 33.1814C115.272 33.1814 116.543 33.5202 117.659 34.1979C118.776 34.8756 119.642 35.8421 120.259 37.0974C120.882 38.345 121.198 39.7774 121.206 41.3947V42.1687C121.206 43.809 120.902 45.2607 120.293 46.5237C119.685 47.7867 118.818 48.7609 117.694 49.4463C116.577 50.124 115.303 50.4628 113.87 50.4628C112.438 50.4628 111.167 50.1355 110.058 49.4809C108.949 48.8186 108.083 47.8752 107.459 46.6508C106.843 45.4263 106.52 44.0208 106.489 42.4344ZM111.433 45.9692C111.98 46.8548 112.792 47.2977 113.87 47.2977C114.895 47.2977 115.684 46.8625 116.239 45.9923C116.793 45.1221 117.074 43.8706 117.082 42.238V41.464C117.082 39.7928 116.801 38.526 116.239 37.6635C115.684 36.7932 114.887 36.3581 113.847 36.3581C111.814 36.3581 110.74 37.8829 110.624 40.9326L110.613 42.1687C110.613 43.8167 110.886 45.0836 111.433 45.9692ZM129.679 33.4124C131.674 33.4124 133.233 33.8552 134.358 34.7409C135.482 35.6265 136.044 36.8779 136.044 38.4952C136.044 39.6658 135.806 40.6361 135.328 41.4062C134.858 42.1764 134.119 42.8002 133.11 43.2776L136.622 50.0585V50.2318H132.278L129.31 44.2942H127.115V50.2318H123.06V33.4124H129.679ZM127.115 41.1637H129.679C130.449 41.1637 131.027 40.9634 131.412 40.563C131.805 40.1548 132.001 39.5888 132.001 38.8648C132.001 38.1409 131.805 37.5749 131.412 37.1667C131.019 36.7509 130.442 36.5429 129.679 36.5429H127.115V41.1637ZM137.725 44.7794H141.792C141.792 45.6804 142.023 46.3466 142.485 46.7778C142.954 47.2014 143.713 47.4132 144.76 47.4132C145.43 47.4132 145.958 47.2707 146.343 46.9858C146.736 46.6931 146.932 46.2849 146.932 45.7613C146.932 45.1683 146.72 44.7062 146.297 44.3751C145.881 44.0439 145.145 43.7012 144.09 43.3469C143.035 42.9927 142.173 42.65 141.503 42.3188C139.323 41.2484 138.234 39.7774 138.234 37.9061C138.234 36.9742 138.503 36.154 139.042 35.4455C139.589 34.7293 140.359 34.1748 141.353 33.7821C142.346 33.3816 143.463 33.1814 144.703 33.1814C145.912 33.1814 146.994 33.397 147.949 33.8283C148.911 34.2595 149.658 34.8756 150.19 35.6766C150.721 36.4698 150.987 37.3785 150.987 38.4028H146.944C146.944 37.7174 146.732 37.186 146.308 36.8086C145.892 36.4313 145.326 36.2426 144.61 36.2426C143.886 36.2426 143.313 36.4043 142.889 36.7278C142.473 37.0435 142.265 37.4478 142.265 37.9407C142.265 38.372 142.496 38.7647 142.958 39.119C143.42 39.4655 144.233 39.8275 145.396 40.2049C146.559 40.5745 147.514 40.975 148.261 41.4062C150.078 42.4536 150.987 43.8976 150.987 45.7382C150.987 47.2091 150.432 48.3643 149.323 49.2037C148.214 50.0431 146.693 50.4628 144.76 50.4628C143.397 50.4628 142.161 50.2203 141.052 49.7351C139.951 49.2422 139.119 48.5722 138.557 47.7251C138.003 46.8702 137.725 45.8883 137.725 44.7794Z" fill="white"/>
<path fill-rule="evenodd" clip-rule="evenodd" d="M35.2575 34.567C35.0177 35.5605 36.1795 36.2541 36.9355 35.598C40.8264 32.1675 40.8264 26.0188 36.9355 22.5882L13.996 2.41744C8.51932 -2.4003 0 1.55512 0 8.90358V49.2827C0 56.6499 8.51932 60.6053 13.996 55.7875L15.084 54.8315C15.9138 54.1004 16.4117 53.0131 16.4117 51.8883C16.4117 51.0823 15.7294 50.4636 14.9549 50.5761L9.58885 51.3447C8.50088 51.4947 7.56044 50.8386 7.21008 49.9013C7.06256 49.4889 7.02568 49.0202 7.15476 48.5515C7.22852 48.2891 7.11788 47.9892 6.87816 47.8579L6.04835 47.333C5.62423 47.0894 5.42139 46.5832 5.53203 46.0958L5.69799 45.3647L4.99727 44.7648C4.72066 44.5399 4.61002 44.1837 4.68378 43.8463L4.90507 42.7778C4.97883 42.4591 4.77599 42.1404 4.4625 42.0841L3.52206 41.9342C2.54473 41.7842 2.00997 40.7344 2.41565 39.8346L4.70222 34.8857C2.60005 26.9373 6.78596 18.5391 14.5308 15.6709C15.4282 15.3335 16.3379 15.0835 17.2599 14.9211C19.1961 14.5836 20.9664 16.0646 21.1323 18.0517C21.3905 21.0136 21.3905 24.1816 21.1139 27.6122C21.0217 27.6309 20.9111 27.6684 20.8004 27.7059C17.5919 28.9057 15.6372 32.0175 15.711 35.3168C15.7478 36.5916 16.0982 37.9038 16.7805 39.1035C18.2188 41.653 21.0401 43.1902 23.9352 43.0027C25.6317 42.8715 27.1438 42.2341 28.3055 41.2781C30.8503 39.216 31.9198 35.673 30.7581 32.4112C30.1311 30.7053 29.0063 29.3368 27.5864 28.437C27.8445 25.4751 27.8999 22.6445 27.7892 19.9638C27.7339 18.5766 29.3566 17.7892 30.3893 18.689C32.2886 20.4137 33.8376 22.607 34.7596 25.2127C35.8844 28.3245 35.9951 31.5676 35.2575 34.567ZM23.5664 29.3743C24.636 29.3743 25.6317 29.6742 26.4984 30.1991C25.9637 30.0492 25.392 29.9554 24.8019 29.9554C21.2614 29.9554 18.3663 32.8798 18.3663 36.4978C18.3663 37.0415 18.4401 37.5663 18.5692 38.0537C18.1082 37.2102 17.8316 36.2354 17.8316 35.2043C17.8316 31.98 20.3947 29.3743 23.5664 29.3743Z" fill="url(#paint0_linear_259_1087)"/>
<defs>
<linearGradient id="paint0_linear_259_1087" x1="54.2328" y1="40.2033" x2="13.4239" y2="57.6057" gradientUnits="userSpaceOnUse">
<stop offset="0.001" stop-color="#B60B00"/>
<stop offset="1" stop-color="#FF7700"/>
</linearGradient>
</defs>
</svg>
